/vscmnt/brussel_pixiu_data/_data_brussel/112/vsc11236/PredSimResults/SUBJ10opt3D/expIG/worker_04.mot
version=1
nRows=6
nColumns=50
inDegrees=yes
endheader
                time	         pelvis_tilt	         pelvis_list	     pelvis_rotation	           pelvis_tx	           pelvis_ty	           pelvis_tz	       hip_flexion_r	     hip_adduction_r	      hip_rotation_r	        knee_angle_r	       ankle_angle_r	         mtp_angle_r	       hip_flexion_l	     hip_adduction_l	      hip_rotation_l	        knee_angle_l	       ankle_angle_l	         mtp_angle_l	    lumbar_extension	      lumbar_bending	     lumbar_rotation	 ercspn_r/activation	 intobl_r/activation	 extobl_r/activation	    abd_r/activation	    add_r/activation	hamstrings_r/activation	bifemsh_r/activation	glut_max_r/activation	iliopsoas_r/activation	rect_fem_r/activation	  vasti_r/activation	gastroc_r/activation	 soleus_r/activation	tib_ant_r/activation	 ercspn_l/activation	 intobl_l/activation	 extobl_l/activation	    abd_l/activation	    add_l/activation	hamstrings_l/activation	bifemsh_l/activation	glut_max_l/activation	iliopsoas_l/activation	rect_fem_l/activation	  vasti_l/activation	gastroc_l/activation	 soleus_l/activation	tib_ant_l/activation	
          0.00000000	         -2.04169621	         -1.88409565	          8.14164341	          0.00000000	          0.83604173	         -0.01594618	         26.90963189	         -0.76148238	         -5.68358926	         -9.04977785	          1.99557532	          0.24518316	        -14.13597547	         -2.12398781	         -1.35626581	         -6.69090204	         10.48537080	         21.54292372	         -5.51920092	         -0.95700794	         -5.06176843	          0.11674235	          0.17839223	          0.00999999	          0.00999999	          0.13084081	          0.07484951	          0.14779810	          0.01758555	          0.08109655	          0.00999999	          0.00999999	          0.00999999	          0.00999999	          0.24630035	          0.05607788	          0.00999999	          0.00999999	          0.07396783	          0.00999999	          0.00999999	          0.18759272	          0.00999999	          0.25974200	          0.00999999	          0.00999999	          0.25999747	          0.23957911	          0.02168276	
          0.01280814	         -2.10059902	         -1.78680760	          8.10895084	          0.01369783	          0.83465309	         -0.01523923	         26.60835287	         -0.62655329	         -5.53938175	         -9.94577978	          1.86983415	          0.24536972	        -14.33631745	         -2.16221170	         -1.86296366	         -7.98960365	         10.09328436	         22.99022749	         -5.27631852	         -0.58551769	         -5.43639693	          0.10489152	          0.17286888	          0.00999999	          0.00999999	          0.17203321	          0.06773817	          0.13575466	          0.02630898	          0.06683034	          0.00999999	          0.00999999	          0.01472506	          0.01213468	          0.25715155	          0.07752066	          0.00999999	          0.00999999	          0.06095568	          0.00999999	          0.01000002	          0.15459209	          0.01041203	          0.21404914	          0.00999999	          0.00999999	          0.23986314	          0.23618804	          0.01786840	
          0.02561629	         -2.15143024	         -1.70125680	          8.03028943	          0.02774598	          0.83343668	         -0.01444454	         26.17255239	         -0.48882374	         -5.33986691	        -10.79390899	          1.63062539	          0.24112797	        -14.48280940	         -2.22227461	         -2.38787309	         -9.43236323	          9.56456066	         24.44860772	         -5.00500057	         -0.17964655	         -5.79800900	          0.09060865	          0.15695016	          0.00999999	          0.00999999	          0.14176976	          0.06094008	          0.11187320	          0.04769768	          0.05507379	          0.00999999	          0.00999999	          0.01213468	          0.00999999	          0.29885462	          0.08660819	          0.00999999	          0.00999999	          0.05023258	          0.00999999	          0.01000000	          0.12739682	          0.00999999	          0.17639440	          0.00999999	          0.00999999	          0.21756428	          0.22761258	          0.01472506	
          0.03842443	         -2.19470105	         -1.62295939	          7.89744301	          0.04197498	          0.83250258	         -0.01352852	         25.68701169	         -0.35223127	         -5.22119704	        -11.53913960	          1.26351172	          0.23439472	        -14.51235615	         -2.30013708	         -2.93849357	        -11.10645052	          8.88510929	         25.89304009	         -4.72683681	          0.24858972	         -6.13778876	          0.09594841	          0.12934006	          0.00999999	          0.03958114	          0.16349722	          0.06201254	          0.09219287	          0.04196828	          0.04538541	          0.00999999	          0.02861620	          0.00999999	          0.00999999	          0.34477483	          0.09911686	          0.00999999	          0.00999999	          0.04139585	          0.00999999	          0.00999999	          0.10498563	          0.00999999	          0.14536374	          0.00999999	          0.00999999	          0.18333071	          0.21616743	          0.01213468	
          0.05123257	         -2.23018644	         -1.54742733	          7.71425705	          0.05628109	          0.83195882	         -0.01250237	         25.17337465	         -0.22118834	         -5.20115785	        -12.24157996	          0.90227628	          0.22458676	        -14.37770252	         -2.39448776	         -3.51781550	        -13.07437334	          8.03804416	         27.26454360	         -4.45086908	          0.69042071	         -6.44899291	          0.09325449	          0.10658703	          0.00999999	          0.06521142	          0.16553625	          0.06470214	          0.07597464	          0.03458537	          0.03740137	          0.00999999	          0.04755502	          0.00999999	          0.00999999	          0.37082647	          0.11246433	          0.00999999	          0.00999999	          0.03411364	          0.00999999	          0.01063106	          0.08651694	          0.01153171	          0.11979188	          0.00999999	          0.00999999	          0.15107984	          0.19996943	          0.00999999	
          0.06404071	         -2.25835653	         -1.47798997	          7.48981258	          0.07055263	          0.83190459	         -0.01138553	         24.64281098	         -0.08943389	         -5.24715440	        -12.93951051	          0.69979839	          0.21247161	        -14.03824060	         -2.51442783	         -4.13267750	        -15.37906802	          7.01840451	         28.45790098	         -4.18492893	          1.14555980	         -6.73091663	          0.08527588	          0.08783663	          0.00999999	          0.08432291	          0.14818383	          0.06727286	          0.06260946	          0.02905238	          0.03082186	          0.00999999	          0.07198904	          0.00999999	          0.00999999	          0.37571269	          0.12773861	          0.00999999	          0.00999999	          0.02811249	          0.02320952	          0.03474181	          0.07129720	          0.01472506	          0.09871853	          0.00999999	          0.01161416	          0.12450243	          0.18134811	          0.00999999	
